<svg width="49" height="48" viewBox="0 0 49 48" fill="none" xmlns="http://www.w3.org/2000/svg">
<g clip-path="url(#clip0_299593_4708)">
<path d="M39.1667 13.3333V21.3333H31.1667" stroke="#929292" stroke-width="2" stroke-linecap="round" stroke-linejoin="round"/>
<path d="M35.82 28.0001C34.9533 30.4533 33.3127 32.5584 31.1455 33.9981C28.9784 35.4378 26.4019 36.1342 23.8046 35.9822C21.2072 35.8303 18.7295 34.8383 16.745 33.1557C14.7605 31.4731 13.3766 29.1911 12.8018 26.6535C12.2271 24.116 12.4926 21.4603 13.5585 19.0869C14.6243 16.7134 16.4327 14.7506 18.7111 13.4943C20.9896 12.238 23.6146 11.7562 26.1906 12.1216C28.7667 12.487 31.1542 13.6798 32.9933 15.5201L39.1667 21.3334" stroke="#929292" stroke-width="2" stroke-linecap="round" stroke-linejoin="round"/>
</g>
<defs>
<clipPath id="clip0_299593_4708">
<rect width="32" height="32" fill="white" transform="translate(8.5 8)"/>
</clipPath>
</defs>
</svg>
