<svg width="48" height="48" viewBox="0 0 48 48" fill="none" xmlns="http://www.w3.org/2000/svg">
<path d="M35.7867 14.1467C35.1057 13.4653 34.2971 12.9249 33.4071 12.5561C32.5172 12.1874 31.5633 11.9976 30.6 11.9976C29.6367 11.9976 28.6828 12.1874 27.7929 12.5561C26.9029 12.9249 26.0943 13.4653 25.4133 14.1467L24 15.56L22.5867 14.1467C21.2111 12.7711 19.3454 11.9983 17.4 11.9983C15.4546 11.9983 13.5889 12.7711 12.2133 14.1467C10.8377 15.5222 10.0649 17.3879 10.0649 19.3333C10.0649 21.2787 10.8377 23.1444 12.2133 24.52L13.6267 25.9333L24 36.3067L34.3733 25.9333L35.7867 24.52C36.468 23.839 37.0085 23.0304 37.3772 22.1405C37.746 21.2505 37.9358 20.2966 37.9358 19.3333C37.9358 18.37 37.746 17.4161 37.3772 16.5262C37.0085 15.6362 36.468 14.8277 35.7867 14.1467V14.1467Z" fill="#EB4848" stroke="#EB4848" stroke-width="3" stroke-linecap="round" stroke-linejoin="round"/>
</svg>
