<svg width="250" height="90" viewBox="0 0 250 90" fill="none" xmlns="http://www.w3.org/2000/svg">
<g clip-path="url(#clip0_299593_4667)">
<path fill-rule="evenodd" clip-rule="evenodd" d="M123.122 42.1364C126.056 42.1724 128.968 41.6611 131.696 40.631C134.249 39.6708 136.579 38.242 138.555 36.4255C140.484 34.6117 142.012 32.4471 143.048 30.06C143.838 28.2807 144.353 26.401 144.574 24.4801C144.734 22.5912 144.763 20.6943 144.66 18.8019H123.225L119.401 26.1328H134.629C134.07 28.4286 132.649 30.4491 130.633 31.811C128.457 33.2778 125.837 34.0249 123.174 33.9382C121.402 33.9429 119.649 33.5917 118.029 32.9073C114.832 31.5817 112.312 29.1062 111.016 26.0183C110.328 24.4262 109.99 22.7164 110.021 20.9946C110.015 19.2756 110.371 17.5728 111.067 15.9874C112.056 13.6706 113.752 11.6916 115.936 10.3081C118.12 8.92465 120.69 8.20086 123.311 8.23101C125.657 8.2133 127.967 8.77716 130.016 9.86737C131.96 10.9215 133.531 12.5054 134.526 14.4164L142.997 10.62C141.252 7.35304 138.531 4.65363 135.177 2.86369C131.581 0.959219 127.526 -0.0165456 123.414 0.0328083C118.991 -0.0216513 114.647 1.15904 110.918 3.42968C107.189 5.70032 104.237 8.96184 102.425 12.8128C101.201 15.3823 100.57 18.1724 100.573 20.9946C100.536 23.8066 101.12 26.5944 102.288 29.1764C103.423 31.6864 105.046 33.9684 107.072 35.9019C109.117 37.8579 111.547 39.4094 114.223 40.4673C117.041 41.5896 120.068 42.1574 123.122 42.1364V42.1364ZM81.8643 89.9837C84.796 90.0178 87.7072 89.5123 90.4383 88.4946C92.993 87.5383 95.3242 86.109 97.2975 84.2892C99.2275 82.4731 100.76 80.3094 101.807 77.9237C102.588 76.1422 103.096 74.2631 103.316 72.3437C103.465 70.4482 103.465 68.5447 103.316 66.6491H81.9501L78.1261 74.0619H93.4735C92.9013 76.3517 91.4749 78.3644 89.4609 79.7237C87.2864 81.1964 84.6666 81.9493 82.0015 81.8674C80.2308 81.8644 78.4796 81.5135 76.8571 80.8365C74.4451 79.8192 72.3998 78.1474 70.9759 76.0292C69.552 73.9111 68.8124 71.44 68.8491 68.9237C68.8513 67.2001 69.2066 65.4935 69.8951 63.9C70.5683 62.3799 71.5404 60.9968 72.7588 59.8255C73.9656 58.6777 75.3918 57.7613 76.96 57.1256C78.5858 56.466 80.3379 56.1371 82.1044 56.1601C84.4454 56.1369 86.7517 56.7012 88.7922 57.7964C90.7359 58.8438 92.3067 60.4225 93.3021 62.3292L101.773 58.5492C100.029 55.2822 97.3072 52.5828 93.9537 50.7928C90.3532 48.86 86.2869 47.856 82.1559 47.8801C77.7298 47.8228 73.3831 49.0043 69.6529 51.2784C65.9227 53.5526 62.9724 56.8199 61.1667 60.6764C59.9403 63.245 59.3087 66.0357 59.3148 68.8583C59.2888 71.6692 59.8726 74.4549 61.0296 77.0401C62.1715 79.5467 63.7941 81.8276 65.8139 83.7655C67.8709 85.704 70.2982 87.2483 72.9645 88.3147C75.7844 89.4331 78.8106 90.0006 81.8643 89.9837ZM175.664 48.5673V89.2801H166.232L145.878 62.8201V89.2801H136.858V52.3637L134.8 48.5673H146.461L166.627 75.3873V48.5673H175.664ZM0 48.5673H11.4892V81.2946H28.7572L26.3736 89.2637H0L2.17782 85.0582V52.7892L0 48.5673ZM31.9466 89.2964H57.6686V81.3437H41.3095V72.4255H53.9475L56.2453 64.7674H41.3095V56.5855H57.6686V48.6491H31.9466V89.2964ZM132.365 89.2964H106.643V48.5509H132.365V56.4874H116.023V64.6692H130.942L128.661 72.4255H116.023V81.3601H132.365V89.2964ZM0 0.720053H11.4892V33.4473H28.7572L26.3736 41.4164H0L2.17782 37.2109V4.90914L0 0.720053ZM31.9466 41.4492H57.6686V33.4801H41.3095V24.5455H53.9475L56.2453 16.8873H41.3095V8.70552H57.6686V0.769192H31.9466V41.4492ZM212.652 41.4492H186.93V0.703673H212.652V8.60734H196.361V16.7892H211.28L208.999 24.4473H196.361V33.3819H212.703L212.652 41.4492ZM86.46 0.720053H73.1703L75.9826 5.9073L60.6351 41.4492H70.1866L73.4447 33.5127H90.7299L94.1595 41.4492H103.762L86.46 0.720053ZM76.6342 25.7237L82.2588 12.0274L87.6432 25.7237H76.6342ZM237.07 30.24V11.8801H248.954V16.0364H241.889V20.0619H248.062L246.862 24.0874H241.889V30.2892L237.07 30.24ZM225.17 11.5528C223.204 11.5882 221.294 12.1768 219.678 13.2446C218.061 14.3124 216.811 15.8119 216.085 17.5549C215.358 19.2979 215.188 21.2069 215.594 23.0423C216 24.8777 216.965 26.5577 218.368 27.8717C219.771 29.1856 221.549 30.075 223.48 30.4281C225.41 30.7812 227.407 30.5824 229.22 29.8566C231.033 29.1308 232.58 27.9103 233.669 26.3483C234.757 24.7862 235.338 22.9523 235.339 21.0764C235.327 19.8129 235.055 18.5638 234.538 17.4005C234.021 16.2372 233.269 15.1825 232.325 14.2967C231.38 13.4108 230.263 12.711 229.035 12.2374C227.807 11.7638 226.494 11.5256 225.17 11.5364V11.5528ZM225.17 26.1819C224.115 26.1657 223.09 25.8527 222.221 25.282C221.353 24.7113 220.68 23.9084 220.288 22.9742C219.897 22.04 219.803 21.0161 220.019 20.0312C220.235 19.0463 220.751 18.1443 221.503 17.4384C222.254 16.7326 223.207 16.2544 224.243 16.064C225.278 15.8735 226.35 15.9793 227.322 16.368C228.295 16.7567 229.125 17.4109 229.71 18.2486C230.294 19.0864 230.606 20.0702 230.606 21.0764C230.588 22.4378 230.006 23.737 228.987 24.6905C227.969 25.644 226.597 26.1742 225.17 26.1655V26.1819ZM158.07 40.9091C162.82 42.5021 167.998 42.5021 172.748 40.9091C174.811 40.1778 176.679 39.0212 178.219 37.5219C179.743 35.9878 180.911 34.1647 181.648 32.171C182.482 29.9343 182.895 27.5741 182.866 25.2001V0.654635H173.4V24.7092C173.553 27.0528 172.83 29.3722 171.359 31.2547C170.58 32.0207 169.647 32.6295 168.616 33.0453C167.585 33.4611 166.477 33.6753 165.358 33.6753C164.239 33.6753 163.131 33.4611 162.1 33.0453C161.069 32.6295 160.136 32.0207 159.356 31.2547C157.879 29.3744 157.15 27.0548 157.298 24.7092V0.654635H147.85V25.2001C147.815 27.5731 148.222 29.9333 149.05 32.171C149.79 34.1582 150.959 35.9753 152.48 37.5055C154.042 39.0448 155.955 40.2207 158.07 40.9419V40.9091ZM237.739 65.0946L231.858 64.0474C229.217 63.5728 227.759 62.1819 227.759 60.1364C227.759 57.3546 230.811 55.6856 233.778 55.6856C234.773 55.6856 239.797 55.931 240.826 60.5946L248.92 56.8964C247.737 53.6237 244.153 47.8147 233.71 47.8147C225.29 47.8147 218.448 53.591 218.448 60.6928C218.448 66.7146 222.752 71.1328 229.971 72.5073L235.853 73.62C238.768 74.16 240.5 75.6983 240.5 77.7437C240.5 80.3946 238.099 81.9982 234.241 82.031C232.201 82.085 230.202 81.4836 228.563 80.3234C226.924 79.1632 225.741 77.5113 225.204 75.6328L217.419 79.691C219.134 85.1237 224.707 89.9673 234.19 89.9673C238.481 90.137 242.673 88.7115 245.885 85.9909C247.161 84.8812 248.185 83.5329 248.893 82.0298C249.601 80.5266 249.978 78.9007 250 77.2528C249.983 71.1492 245.302 66.5019 237.739 65.1273V65.0946ZM210.08 54.5401C212.086 56.3748 213.7 58.5646 214.83 60.9874C215.978 63.5156 216.57 66.2419 216.57 68.9974C216.57 71.7529 215.978 74.479 214.83 77.0073C213.71 79.4308 212.095 81.6171 210.08 83.4382C208.033 85.2764 205.642 86.7307 203.032 87.7255C200.306 88.7671 197.394 89.295 194.458 89.2801H179.745V48.5509H194.475C197.407 48.6513 200.302 49.2039 203.049 50.1873C205.657 51.2055 208.042 52.6821 210.08 54.5401ZM203.22 77.5801C204.37 76.483 205.285 75.1823 205.913 73.751C206.575 72.2487 206.916 70.6353 206.916 69.0055C206.916 67.3757 206.575 65.7624 205.913 64.2601C205.289 62.8124 204.371 61.4971 203.212 60.3904C202.052 59.2837 200.673 58.4076 199.156 57.8128C197.561 57.1739 195.845 56.8509 194.115 56.8637H188.97V81.1146H194.115C195.847 81.1217 197.562 80.7932 199.156 80.1491C200.699 79.5534 202.107 78.6814 203.306 77.5801H203.22Z" fill="white"/>
</g>
<defs>
<clipPath id="clip0_299593_4667">
<rect width="250" height="90" fill="white"/>
</clipPath>
</defs>
</svg>
