<svg width="49" height="48" viewBox="0 0 49 48" fill="none" xmlns="http://www.w3.org/2000/svg">
<g clip-path="url(#clip0_299593_4703)">
<path d="M14 7.47751V40.5225C14.0049 40.7862 14.0792 41.044 14.2155 41.2698C14.3518 41.4956 14.5452 41.6814 14.7762 41.8086C15.0073 41.9358 15.2678 41.9999 15.5314 41.9943C15.7951 41.9887 16.0527 41.9138 16.2781 41.7769L43.2931 25.2544C43.5089 25.1238 43.6874 24.9397 43.8112 24.72C43.9351 24.5002 44.0001 24.2523 44.0001 24C44.0001 23.7478 43.9351 23.4998 43.8112 23.2801C43.6874 23.0603 43.5089 22.8762 43.2931 22.7456L16.2781 6.22314C16.0527 6.08628 15.7951 6.01128 15.5314 6.00571C15.2678 6.00013 15.0073 6.06418 14.7762 6.19139C14.5452 6.3186 14.3518 6.50448 14.2155 6.73028C14.0792 6.95608 14.0049 7.21382 14 7.47751Z" fill="#EB4848" stroke="#EB4848" stroke-width="2" stroke-linecap="round" stroke-linejoin="round"/>
</g>
<defs>
<clipPath id="clip0_299593_4703">
<rect width="48" height="48" fill="white" transform="translate(0.5)"/>
</clipPath>
</defs>
</svg>
